<svg xmlns="http://www.w3.org/2000/svg" xmlns:xlink="http://www.w3.org/1999/xlink" viewBox="0 0 160 72"><defs><style>.cls-1{fill:#fff;fill-rule:evenodd;}.cls-2{fill:#e31837;}.cls-3{mask:url(#mask);}.cls-4{mask:url(#mask-2);}.cls-5{mask:url(#mask-3);}</style><mask id="mask" x="83.63" y="35.68" width="1.89" height="1.88" maskUnits="userSpaceOnUse"><g id="mask0"><path class="cls-1" d="M83.63,35.68h1.89v1.88H83.63Z"/></g></mask><mask id="mask-2" x="76.65" y="22.78" width="24.02" height="14.78" maskUnits="userSpaceOnUse"><g id="mask1"><path class="cls-1" d="M76.65,22.78h24V37.56h-24Z"/></g></mask><mask id="mask-3" x="22.47" y="48.84" width="115.06" height="7.65" maskUnits="userSpaceOnUse"><g id="mask2"><path class="cls-1" d="M22.47,48.84H137.53v7.65H22.47Z"/></g></mask></defs><g id="Layer_2" data-name="Layer 2"><g id="bankofamerica_14007"><g id="_14007_tile" data-name="14007_tile"><rect class="cls-2" width="160" height="72" rx="8"/><g class="cls-3"><path class="cls-1" d="M83.74,36.62a.79.79,0,0,0,.83.7.7.7,0,1,0,0-1.4A.79.79,0,0,0,83.74,36.62Zm-.11,0a.95.95,0,0,1,1.89,0,.95.95,0,0,1-1.89,0Z"/></g><path class="cls-1" d="M84.45,36.62c.12,0,.36,0,.36-.12s-.12-.11-.24-.11h-.23v.35h.11Zm.48.59h-.24l-.35-.47H84.1v.47H84V36.15h.47c.12,0,.24,0,.24.12s.12.12.12.23-.12.24-.36.24Z"/><g class="cls-4"><path class="cls-1" d="M80.08,37.56c6.5-5.51,15.5-10.79,20.58-12.79-.83-.47-2-1.17-3.31-2-6.39,2.11-14,6.8-20.7,12.08C77.83,35.8,79,36.62,80.08,37.56Z"/></g><path class="cls-1" d="M77.12,22.66c-1-.47-2-.94-2.84-1.29a69.49,69.49,0,0,0-9.58,5.87c.83.47,1.77,1.05,2.72,1.52A83.36,83.36,0,0,1,77.12,22.66Z"/><path class="cls-1" d="M82.92,20a55.26,55.26,0,0,0-8-2.81A29.74,29.74,0,0,1,72,18.21a39.2,39.2,0,0,1,8,2.93C80.91,20.79,82.09,20.32,82.92,20Z"/><path class="cls-1" d="M69.19,19.61a79,79,0,0,0-9.46,5.28c.71.35,1.42.59,2.48,1.06a70.7,70.7,0,0,1,9.59-5.52C70.73,20.08,69.78,19.85,69.19,19.61Z"/><path class="cls-1" d="M85.64,19a23.63,23.63,0,0,0,2.6-.82,43.63,43.63,0,0,0-8.16-2.7c-.48.11-1.78.47-2.61.7A77.58,77.58,0,0,1,85.64,19Z"/><path class="cls-1" d="M70.49,30.52c1,.59,2,1.41,3.08,2,6.74-5.17,13.37-9.15,20.7-11.5-1.06-.47-1.89-.94-3.07-1.52C86.7,20.67,79.25,23.72,70.49,30.52Z"/><g class="cls-5"><path class="cls-1" d="M133.75,50.75l.85,2.68h-1.78Zm.92-1.76H132.9l-2.78,7.27H132l.54-1.53h2.63l.54,1.53h1.85Zm-6.56,5.36a3.33,3.33,0,0,1-1.93.61,2.3,2.3,0,0,1-.07-4.59A3,3,0,0,1,128,51V49.3a4.57,4.57,0,0,0-2.08-.46,3.85,3.85,0,0,0-4,3.83,3.76,3.76,0,0,0,4,3.82A4.68,4.68,0,0,0,128,56Zm-10.57,1.91h1.78V49h-1.78Zm-5.94-5.89c.77,0,1.16.31,1.16.92s-.39.92-1.16.92h-.77V50.37Zm1.31,5.89h1.93L113,53.2a1.89,1.89,0,0,0,1.46-2c0-1.3-.77-2.22-2.62-2.22H109v7.27h1.77V53.43h.46Zm-11.8,0h5V54.89h-3.24V53.28h2.55V51.9h-2.55V50.37h2.93l.31-1.38H101v7.27ZM97.63,49H95.55l-1.93,4-1.93-4H89.61v7.27h1.62V51.37l2.39,4.89L96,51.37v4.89h1.7ZM83.36,50.75l.85,2.68H82.43ZM84.21,49H82.43l-2.78,7.27h1.86l.54-1.53h2.62l.54,1.53h1.85ZM71,56.26h1.78V53.43H75.1V52.06H72.79V50.45h2.77l.31-1.38H70.93ZM60.67,52.67a3.94,3.94,0,1,1,3.94,3.82A3.78,3.78,0,0,1,60.67,52.67Zm1.93,0a2,2,0,1,0,4,0,2,2,0,1,0-4,0Zm-8.41,3.59-2.47-3.67v3.67H49.94V49h1.78v3.52L54,49h2l-2.39,3.52,2.62,3.75ZM46.47,49h-1.7v4.9L41.61,49H39.76v7.27h1.7V51.37l3.16,4.89h1.85ZM33.66,50.75l.85,2.68H32.74ZM34.51,49H32.74L30,56.26h1.85l.54-1.53H35l.54,1.53h1.86ZM25,50.3c.62,0,1,.22,1,.84s-.38.84-1,.84h-.85V50.3Zm.23,2.9c.62,0,1,.31,1,.92s-.38.92-1,.92H24.17V53.2Zm-2.78,3.06h3.24c1.62,0,2.4-.84,2.4-2a1.7,1.7,0,0,0-1.55-1.76,1.49,1.49,0,0,0,1.31-1.6c0-1.07-.77-1.84-2.39-1.84h-3Z"/></g></g></g></g></svg>