<svg xmlns="http://www.w3.org/2000/svg" viewBox="0 0 160 72"><defs><style>.cls-1{fill:#054b77;}.cls-2{fill:#cf3128;}.cls-2,.cls-3{fill-rule:evenodd;}.cls-3{fill:#fff;}</style></defs><g id="Layer_2" data-name="Layer 2"><g id="capitalone_170778"><g id="_170778_tile" data-name="170778_tile"><rect class="cls-1" width="160" height="72" rx="8"/><path class="cls-2" d="M98.16,44.3l0,0c-4.41,3.12-9.64,6.4-15.26,9.85l-.22.13a.15.15,0,0,0,0,.23.16.16,0,0,0,.23,0l.19-.1C87.81,52,93.28,49,98.8,46l.09,0a6.47,6.47,0,0,1-.73-1.65m29-23.44c-7-7.68-51.72-.77-70.75,3.38l-.44.1a.16.16,0,0,0-.14.19.16.16,0,0,0,.19.13l.44-.08c15.77-2.81,48.57-6.7,55.62.29,2.16,2.14,1.64,4.89-.86,8.13a6.45,6.45,0,0,1,2.74,3.93c9.75-6.47,16.3-12.66,13.2-16.07"/><path class="cls-3" d="M49,40.93a4.41,4.41,0,0,1-.72.2c-.3.07-.85.17-1.65.29a2.8,2.8,0,0,0-1.14.36.83.83,0,0,0-.36.56.54.54,0,0,0,.24.58,1.86,1.86,0,0,0,1,.22A3.6,3.6,0,0,0,47.53,43a2.6,2.6,0,0,0,.89-.48,1.33,1.33,0,0,0,.38-.56,5.42,5.42,0,0,0,.22-1m4.56-2.83a12.07,12.07,0,0,1-.2,1.44l-.77,4.33a.79.79,0,0,0,.43.89l0,.17H48.6l0-1.09a9,9,0,0,1-2.12.9,7.74,7.74,0,0,1-2.12.26,4.14,4.14,0,0,1-2.81-.64,1.77,1.77,0,0,1-.82-1.55,2.46,2.46,0,0,1,.53-1.29,3.3,3.3,0,0,1,1.18-.82,6.34,6.34,0,0,1,1.77-.5c.78-.13,1.86-.25,3.32-.37a5,5,0,0,0,1.45-.33c.3-.12.42-.25.46-.49.09-.45,0-.71-.65-.82a18,18,0,0,0-6.11.58l.84-2.25A39.61,39.61,0,0,1,49.4,36c3.2,0,4.22.91,4.18,2.08"/><path class="cls-3" d="M66.38,44.92l1.53-8.65h4.23l-1.53,8.65Zm1.77-10.65c.12-.71,1.25-1.28,2.5-1.28s2.17.57,2,1.28-1.25,1.29-2.51,1.29S68,35,68.15,34.27Z"/><path class="cls-3" d="M87.15,41c-.19.06-.43.13-.73.2s-.85.16-1.64.29a2.63,2.63,0,0,0-1.14.35.9.9,0,0,0-.37.56.54.54,0,0,0,.24.58,2,2,0,0,0,1.06.21A3.69,3.69,0,0,0,85.66,43a2.77,2.77,0,0,0,.89-.47,1.47,1.47,0,0,0,.38-.56,8,8,0,0,0,.22-1m4.56-2.84a10.37,10.37,0,0,1-.21,1.44l-.77,4.33a.82.82,0,0,0,.44.9l0,.15H86.73l0-1.1a8.59,8.59,0,0,1-2.12.91,7.74,7.74,0,0,1-2.12.26c-1.43,0-2.24-.14-2.81-.64s-.85-.85-.82-1.55a2.38,2.38,0,0,1,.53-1.29,3.25,3.25,0,0,1,1.18-.82,6.84,6.84,0,0,1,1.76-.5c.79-.12,1.88-.25,3.33-.38a4.73,4.73,0,0,0,1.45-.32.61.61,0,0,0,.47-.5c.07-.44-.06-.69-.65-.82a18.27,18.27,0,0,0-6.11.59l.83-2.26A41.21,41.21,0,0,1,87.54,36c3.18,0,4.2.92,4.17,2.08"/><path class="cls-3" d="M40.12,41.82a15.65,15.65,0,0,1-3.51.38c-2,0-3.63-1-3.54-2.85.06-1.22,1.51-3.81,5.2-3.81a6.07,6.07,0,0,1,3.29.9l.53-3a10.17,10.17,0,0,0-4.18-.7c-4.83,0-9.47,2.24-10,6.71s5,5.68,7.42,5.67c1.42,0,2.89-.07,4.27-.21Z"/><path class="cls-3" d="M74.47,36.23l.3-1.77,4.42-1-.47,2.72h2.17L80.48,38h-2.1L77.1,44.91s-4.26,0-4.28,0L74.1,38H72.5l.32-1.75h1.65Z"/><polygon class="cls-3" points="98.06 32.97 96 44.92 91.7 44.92 93.86 32.86 98.06 32.97"/><path class="cls-3" d="M60.79,38.3a2.44,2.44,0,0,0-1.5.5,2.23,2.23,0,0,0-.84,1.48,1.9,1.9,0,0,0,.25,1.63,1.67,1.67,0,0,0,1.3.5,2.6,2.6,0,0,0,1.08-.21,2.24,2.24,0,0,0,.83-.72,3,3,0,0,0,.47-1.14,1.73,1.73,0,0,0-.3-1.53A1.69,1.69,0,0,0,60.79,38.3Zm-7.7,9.61,2.06-11.59h3.72l-.29,1.48a3.42,3.42,0,0,1,1.55-1.1,6.39,6.39,0,0,1,2.4-.51,4.4,4.4,0,0,1,2.29.43,3.09,3.09,0,0,1,1.49,1.64,4.28,4.28,0,0,1,.19,2.35A5.13,5.13,0,0,1,64.41,44a5.61,5.61,0,0,1-3.61,1,5.8,5.8,0,0,1-1.3-.14,3.65,3.65,0,0,1-.85-.34,4,4,0,0,1-.69-.63l-.69,4Z"/><path class="cls-3" d="M101,42.22c.09,2.7,1.8,4.91,4,4.91,4.32,0,6.16-5.3,6-8.84-.09-2.7-1.85-4.91-4.07-4.91-3.71,0-6.11,5.27-6,8.84m-2.28-.15c-.16-4.6,3.45-9.32,8.7-9.32,3.5,0,5.8,2.34,5.92,5.92.17,4.86-3.2,9.32-8.69,9.32-3.51,0-5.81-2.33-5.93-5.92"/><path class="cls-3" d="M126.89,46.73a2.18,2.18,0,0,1-2.32-2.25,3.45,3.45,0,0,1,.11-1.09c2.73-.06,6.87-1,6.76-3.91,0-1.31-1.18-1.84-2.4-1.84-2.84,0-6.32,3.44-6.18,7.15A3,3,0,0,0,125.94,48a5.3,5.3,0,0,0,4.59-3.11l-.33-.23A4.39,4.39,0,0,1,126.89,46.73Zm1.84-8.6c.72,0,1.07.47,1.1,1.17.07,1.9-2.15,3.6-5,3.59C125.15,41.53,127,38.13,128.73,38.13Z"/><path class="cls-3" d="M113.24,39.2a9.72,9.72,0,0,1,1-.09c.31,0,.6.06.62.37s-.32,1.49-.39,1.8l-.66,2.9c-.27,1.19-.56,2.44-.81,3.43h1.69l1-4.61c2.9-3,4-4,4.71-4a.48.48,0,0,1,.53.53,9.3,9.3,0,0,1-.42,2.09l-1,3.36a6.78,6.78,0,0,0-.37,1.92A1,1,0,0,0,120.23,48c1.24,0,2.14-1.29,2.92-2.56l-.23-.41c-.31.51-1,1.62-1.63,1.62-.18,0-.35-.12-.36-.43a5.1,5.1,0,0,1,.26-1.37l1.08-3.93a9,9,0,0,0,.42-2.16,1,1,0,0,0-1.11-1.08c-1.12,0-2.59.82-5.73,4.42h0l.4-1.76c.22-1,.43-2,.62-2.66a29.09,29.09,0,0,1-3.59,1Z"/></g></g></g></svg>