<svg xmlns="http://www.w3.org/2000/svg" viewBox="0 0 160 72"><defs><style>.cls-1{fill:#117aca;}.cls-2{fill:#fff;fill-rule:evenodd;}</style></defs><g id="Layer_2" data-name="Layer 2"><g id="chase_102224"><g id="_102224_tile" data-name="102224_tile"><rect class="cls-1" width="160" height="72" rx="8"/><g id="logo"><path class="cls-2" d="M77.26,44.08c.6-.93,1.13-1.79,1.7-2.62.09-.13.39-.18.59-.18h8c1.35,0,1.65-.3,1.65-1.66,0-.31,0-.63,0-1,0-1.11-.3-1.41-1.4-1.41-2.17,0-4.35,0-6.53,0a5.25,5.25,0,0,1-2-.45,3.14,3.14,0,0,1-1.75-2.29,8.15,8.15,0,0,1,0-3.74A3.48,3.48,0,0,1,80.68,28c.78-.07,1.57-.06,2.36-.06h8.5l.51,0a20.1,20.1,0,0,0-1.14,1.84,1.56,1.56,0,0,1-1.68.92c-2.4-.06-4.81,0-7.21,0-1,0-1.34.29-1.35,1.34,0,.37,0,.75,0,1.12,0,.84.35,1.16,1.18,1.16H88a9.32,9.32,0,0,1,1.29.09,3.36,3.36,0,0,1,3.15,3,12.65,12.65,0,0,1,0,3.53c-.29,2-1.71,3.07-4,3.11C84.79,44.12,81.09,44.08,77.26,44.08Z"/><path class="cls-2" d="M98.84,30.7v3.69h8.82v2.72H98.87v4.16h.65c2.67,0,5.33,0,8,0a.78.78,0,0,1,.77.41c.46.79,1,1.55,1.49,2.39H95.57v-.61c0-5,0-9.94,0-14.91,0-.42.07-.6.54-.6,4.37,0,8.75,0,13.12,0a4.21,4.21,0,0,1,.49.05c-.58.9-1.1,1.75-1.67,2.58-.08.11-.37.12-.57.12-2.66,0-5.32,0-8,0Z"/><path class="cls-2" d="M43.41,34.32h9V33.4c0-1.63,0-3.27,0-4.9,0-.4.08-.57.52-.56.88,0,1.75,0,2.67,0V44.06H52.38V37.18H43.44v6.88H40.25V28h3.16Z"/><path class="cls-2" d="M57.44,44.09c.12-.28.2-.48.29-.68q3.54-7.47,7.08-14.95a.73.73,0,0,1,.8-.52c.75,0,1.5,0,2.25,0a.74.74,0,0,1,.55.33q3.72,7.79,7.42,15.59s0,.08,0,.2c-1.14,0-2.27,0-3.4,0-.1,0-.23-.22-.3-.36-.39-.85-.78-1.7-1.14-2.57a.58.58,0,0,0-.63-.41q-3.72,0-7.43,0a.59.59,0,0,0-.64.41c-.36.87-.74,1.73-1.15,2.57a.74.74,0,0,1-.51.37C59.61,44.11,58.58,44.09,57.44,44.09ZM69.6,38l-2.95-6.72c-1,2.32-2,4.5-2.92,6.72Z"/><path class="cls-2" d="M38.27,44.08c-3.6,0-7.07.07-10.54,0A4.52,4.52,0,0,1,23,39.23q0-3.24,0-6.47c.05-2.81,1.71-4.66,4.5-4.76,3.49-.11,7,0,10.47-.05a.74.74,0,0,1,.22.08c-.57.88-1.1,1.75-1.68,2.6-.08.12-.36.15-.55.16-2.29,0-4.58,0-6.86,0h-.51c-1.58,0-2.22.66-2.24,2.23,0,2,0,3.91,0,5.86,0,1.6.66,2.25,2.27,2.26,2.35,0,4.69,0,7,0a1.09,1.09,0,0,1,1.11.62C37.24,42.53,37.74,43.26,38.27,44.08Z"/><path class="cls-2" d="M136.3,31.33h-.56c-4.07,0-8.14,0-12.2,0-.54,0-.72-.14-.71-.69,0-1.39,0-2.77,0-4.16,0-.78.23-1,1-1,2,0,3.93,0,5.9,0a1.06,1.06,0,0,1,.7.24c1.91,1.78,3.79,3.58,5.68,5.37C136.17,31.14,136.2,31.2,136.3,31.33Z"/><path class="cls-2" d="M131.22,45.79c0-.23,0-.4,0-.56,0-4.07,0-8.14,0-12.21,0-.55.16-.71.7-.7,1.37,0,2.74,0,4.11,0,.79,0,1,.17,1,.94,0,2,0,4,0,6a1.29,1.29,0,0,1-.29.81c-1.71,1.82-3.43,3.62-5.16,5.43A2.09,2.09,0,0,1,131.22,45.79Z"/><path class="cls-2" d="M116.79,40.75h12.65c.74,0,.74,0,.74.75,0,1.35,0,2.7,0,4,0,.74-.24,1-1,1q-3,0-6,0a1,1,0,0,1-.65-.22c-1.86-1.75-3.7-3.51-5.55-5.27A2.81,2.81,0,0,1,116.79,40.75Z"/><path class="cls-2" d="M121.73,26.3c0,.25,0,.43,0,.61,0,4,0,8,0,12.05,0,.56-.16.74-.73.73-1.39,0-2.78,0-4.17,0-.69,0-.89-.21-.89-.91q0-3,0-6a1.23,1.23,0,0,1,.24-.7c1.73-1.85,3.48-3.68,5.23-5.51A3,3,0,0,1,121.73,26.3Z"/></g></g></g></g></svg>