<svg xmlns="http://www.w3.org/2000/svg" xmlns:xlink="http://www.w3.org/1999/xlink" viewBox="0 0 160 72"><defs><style>.cls-1{fill:#fff;}.cls-1,.cls-3,.cls-5,.cls-6{fill-rule:evenodd;}.cls-2{fill:#056cae;}.cls-3{fill:#fefefe;}.cls-4{mask:url(#mask);}.cls-5{fill:#ec1b2e;}.cls-6{fill:#ff0006;}</style><mask id="mask" x="54.9" y="18.82" width="50.2" height="32.36" maskUnits="userSpaceOnUse"><g id="mask0"><path class="cls-1" d="M54.9,51.18h50.2V18.82H54.9Z"/></g></mask></defs><g id="Layer_2" data-name="Layer 2"><g id="citi_1003"><g id="_1003_tile" data-name="1003_tile"><rect class="cls-2" width="160" height="72" rx="8"/><path class="cls-3" d="M74.89,50.8H79v-20H74.89Z"/><path class="cls-3" d="M82.73,30.82v3.75h3.45v11.3a5.55,5.55,0,0,0,1.25,3.75,4.19,4.19,0,0,0,3.3,1.49,6.5,6.5,0,0,0,3.63-.91l.06,0V50.1l1-3.81-.24.16a5.92,5.92,0,0,1-3,1c-1.28,0-1.92-.76-1.92-2.25V34.57h4.18V30.82H90.21V24.56l-4,2.16v4.1Z"/><g class="cls-4"><path class="cls-3" d="M98.42,50.8h4.12v-20H98.42Z"/><path class="cls-3" d="M72.54,33.93l-.09-.06a8.76,8.76,0,0,0-7.08-3.41A10.41,10.41,0,0,0,58,33.17a9.86,9.86,0,0,0-3.12,7.66A9.91,9.91,0,0,0,58,48.49a10.34,10.34,0,0,0,7.35,2.69,8.83,8.83,0,0,0,7.08-3.39l.09-.07-2.32-2.8-.09.09a6.82,6.82,0,0,1-4.85,2.26,6,6,0,0,1-4.49-1.83A6.27,6.27,0,0,1,59,40.83a6.38,6.38,0,0,1,1.76-4.65,6.13,6.13,0,0,1,4.49-1.8,6.8,6.8,0,0,1,4.85,2.27l.09.08Z"/><path class="cls-5" d="M76.91,27.49a17,17,0,0,1,5.46-3.78,15.58,15.58,0,0,1,6.26-1.28,15.94,15.94,0,0,1,6.29,1.28,17.47,17.47,0,0,1,5.42,3.78l.06.06h4.7l-.17-.28a20.13,20.13,0,0,0-7.18-6.21,19.71,19.71,0,0,0-18.25,0,19.93,19.93,0,0,0-7.17,6.21l-.19.28h4.73Z"/><path class="cls-3" d="M74.89,50.8H79v-20H74.89Z"/><path class="cls-3" d="M82.73,30.82v3.75h3.45v11.3a5.55,5.55,0,0,0,1.25,3.75,4.19,4.19,0,0,0,3.3,1.49,6.5,6.5,0,0,0,3.63-.91l.06,0V50.1l1-3.81-.24.16a5.92,5.92,0,0,1-3,1c-1.28,0-1.92-.76-1.92-2.25V34.57h4.18V30.82H90.21V24.56l-4,2.16v4.1Z"/><path class="cls-3" d="M98.42,50.8h4.12v-20H98.42Z"/><path class="cls-3" d="M72.54,33.93l-.09-.06a8.76,8.76,0,0,0-7.08-3.41A10.41,10.41,0,0,0,58,33.17a9.86,9.86,0,0,0-3.12,7.66A9.91,9.91,0,0,0,58,48.49a10.34,10.34,0,0,0,7.35,2.69,8.83,8.83,0,0,0,7.08-3.39l.09-.07-2.32-2.8-.09.09a6.82,6.82,0,0,1-4.85,2.26,6,6,0,0,1-4.49-1.83A6.27,6.27,0,0,1,59,40.83a6.38,6.38,0,0,1,1.76-4.65,6.13,6.13,0,0,1,4.49-1.8,6.8,6.8,0,0,1,4.85,2.27l.09.08Z"/><path class="cls-6" d="M76.91,27.49a17,17,0,0,1,5.46-3.78,15.58,15.58,0,0,1,6.26-1.28,15.94,15.94,0,0,1,6.29,1.28,17.47,17.47,0,0,1,5.42,3.78l.06.06h4.7l-.17-.28a20.13,20.13,0,0,0-7.18-6.21,19.71,19.71,0,0,0-18.25,0,19.93,19.93,0,0,0-7.17,6.21l-.19.28h4.73Z"/></g></g></g></g></svg>