<?xml version="1.0" encoding="UTF-8"?><svg xmlns="http://www.w3.org/2000/svg" xmlns:xlink="http://www.w3.org/1999/xlink" viewBox="0 0 160 72"><defs><style>.k{mask:url(#g);}.l{mask:url(#i);}.m{mask:url(#e);}.n{fill:#414e58;}.o{fill:#f58025;}.o,.p{fill-rule:evenodd;}.p{fill:#fff;}</style><mask id="e" x="108.55" y="25.71" width="18.01" height="20.36" maskUnits="userSpaceOnUse"><g id="f"><path class="p" d="M108.55,25.71h18.01v20.36h-18.01V25.71Z"/></g></mask><mask id="g" x="55.46" y="45.59" width="2.77" height="2.7" maskUnits="userSpaceOnUse"><g id="h"><path class="p" d="M55.46,45.59h2.77v2.7h-2.77v-2.7Z"/></g></mask><mask id="i" x="33.44" y="23.45" width="25.75" height="25.09" maskUnits="userSpaceOnUse"><g id="j"><path class="p" d="M33.44,23.46h25.75v25.09h-25.75V23.46Z"/></g></mask></defs><g id="a"/><g id="b"><g id="c"><g id="d"><rect class="n" width="160" height="72" rx="8" ry="8"/><g><path class="p" d="M71.8,29.16c0-1.75,.18-1.99,3.24-1.99,3.36,0,5.4,1.46,5.4,4.39,0,3.8-3.48,4.33-7.02,4.33h-1.62v-6.73Zm-3.24,16.61h3.24v-8.77h1.74c4.56,0,10.63-.35,10.63-5.44s-5.7-5.56-10.27-5.56h-9.13v.53c3.24,.35,3.78,.82,3.78,2.63v16.61Z"/><path class="p" d="M87.66,29.51c0-2.4-.54-2.57-3.78-2.98v-.53h7.56l11.83,16.09h.06V26h1.98v19.77h-2.88l-12.73-17.2h-.06v17.2h-1.98V29.51Z"/><g class="m"><path class="p" d="M126.56,45.24c-1.8,.47-3.54,.82-7.08,.82-7.08,0-10.93-4.86-10.93-10.82,0-5.32,2.28-9.53,10.03-9.53,5.7,0,7.75,2.34,7.99,4.33h-3.66c-.18-.94-.84-2.98-4.56-2.98-4.02,0-6.12,2.93-6.12,7.43,0,4.15,1.08,10.3,9.37,10.3,2.22,0,4.56-.64,4.98-.76v1.23Z"/></g><path class="o" d="M56.35,46.14c.11-.02,.26-.03,.41-.03,.23,0,.38,.04,.48,.13,.08,.07,.13,.18,.13,.31,0,.21-.14,.36-.31,.41h0c.13,.05,.21,.17,.24,.34,.05,.23,.1,.38,.13,.45h-.22s-.06-.19-.11-.39c-.05-.23-.14-.31-.33-.32h-.2v.7h-.22v-1.6Zm.22,.74h.22c.23,0,.38-.12,.38-.31,0-.21-.16-.3-.38-.3-.1,0-.18,.01-.21,.02v.59Z"/><g class="k"><path class="o" d="M55.46,46.94c0-.74,.62-1.35,1.38-1.35s1.38,.6,1.38,1.35-.62,1.35-1.38,1.35-1.38-.6-1.38-1.35Zm.21,0c0,.63,.53,1.15,1.18,1.15,.65,0,1.18-.51,1.18-1.15,0-.63-.53-1.14-1.18-1.15-.65,0-1.18,.51-1.18,1.15Z"/></g><path class="p" d="M58.72,35.88c0,6.64-5.53,12.03-12.34,12.03s-12.34-5.38-12.34-12.03,5.53-12.03,12.34-12.03,12.34,5.38,12.34,12.03Z"/><g class="l"><path class="o" d="M46.29,23.45c-7.12,0-12.85,5.58-12.85,12.52s5.73,12.57,12.85,12.57,12.91-5.64,12.91-12.57-5.79-12.52-12.91-12.52Zm-6.94,5.52c0-2.23,1.81-5.23,5.31,.59,.6,1.06,1.45,2.47,1.45,2.47-.36,.06-.66,.29-.96,.76l-1.57,2.7-2.78,4.58s-1.15,1.82-1.39,3.7c-.12-1.06-.06-14.81-.06-14.81Zm4.16,16.22c-1.99,1.12-5.55,1.12-2.11-4.76,.6-1,1.45-2.47,1.45-2.47,.24,.29,.6,.47,1.15,.47h8.69s2.17,.06,3.92-.65c-.78,.59-13.09,7.4-13.09,7.4Zm9.17-7.46h-2.9c.12-.29,.06-.7-.18-1.18l-1.63-2.64-2.71-4.64s-1.03-1.88-2.53-3c.96,.35,13.15,7.29,13.15,7.29,1.99,1.18,3.74,4.11-3.2,4.17Z"/></g></g></g></g></g></svg>