<svg xmlns="http://www.w3.org/2000/svg" viewBox="0 0 160 72"><defs><style>.cls-1{fill:#003f2d;}.cls-2{fill:#fff;}.cls-3{fill:#54b848;}</style></defs><g id="Layer_2" data-name="Layer 2"><g id="tdbank_15271"><g id="_15271_tile" data-name="15271_tile"><rect class="cls-1" width="160" height="72" rx="8"/><rect id="rect2641" class="cls-2" x="29.73" y="21.03" width="35.77" height="29.95"/><path id="path2643" class="cls-2" d="M80.89,34.83h1.42c1,0,2,.22,2,1.41s-1,1.42-2,1.42H80.89V34.83Zm-5,5.69h8c2.87,0,5.68-.36,5.68-3.85a3.4,3.4,0,0,0-3.11-3.14v0C88.33,33,89.35,32,89.35,30.1c0-2.63-2.36-3.4-4.76-3.4H75.9Zm5-11.2h1.44c1,0,1.83.31,1.83,1.34s-1,1.32-2,1.32H80.89V29.32Z"/><path id="path2645" class="cls-2" d="M97.67,36.3a1.67,1.67,0,0,1-1.55,1.84c-.77,0-1.17-.28-1.17-1C95,36.08,96.14,36,97.17,36h.5v.32Zm-6.09-2.85A8,8,0,0,1,95,32.58c1.25,0,2.62.16,2.64,1.48-.46,0-1.25-.14-2-.14-2.47,0-5.32.64-5.32,3.8,0,2.16,1.86,3,3.78,3A3.74,3.74,0,0,0,97.55,39h0v1.49h4.63V34.24c0-3.76-3.47-4.27-6.32-4.27a13.31,13.31,0,0,0-4.32.59v2.89Z"/><path id="path2647" class="cls-2" d="M103.63,30.2h4.71V32h0a3.42,3.42,0,0,1,3.37-2c2.65,0,3.62,1.38,3.62,3.38v7.16h-5V34.58c0-.6,0-1.41-.87-1.41s-.89.81-.89,1.41v5.93h-5V30.2Z"/><polygon id="polygon2649" class="cls-2" points="122.05 34.3 122.09 34.3 124.94 30.2 130.58 30.2 127.1 34.75 130.73 40.52 124.9 40.52 122.09 35.51 122.05 35.51 122.05 40.52 117.06 40.52 117.06 25.67 122.05 25.67 122.05 34.3"/><path id="path2651" class="cls-3" d="M29.27,51.39H65.88V20.61H29.27Zm24-6.66H44.77V30.29h4.29V42.18h4.12c2.84,0,4-1.86,4-6.63S55.85,29.36,53,29.36H43.58V44.73H39.34V29.36H33.12V26.8H54.29c5.11,0,7.54,2.48,7.54,8.71,0,8.21-3.63,9.22-8.53,9.22"/></g></g></g></svg>