<svg xmlns="http://www.w3.org/2000/svg" viewBox="0 0 160 72"><defs><style>.cls-1{fill:#112976;}.cls-2{fill:#d52842;}.cls-3,.cls-4{fill:#fff;}.cls-4{fill-rule:evenodd;}</style></defs><g id="Layer_2" data-name="Layer 2"><g id="usbank_676"><g id="_676_tile" data-name="676_tile"><rect class="cls-1" width="160" height="72" rx="8"/><g id="logo"><path class="cls-2" d="M26.82,24.25V45.6l18.08,6.15L63,45.6V24.25Z"/><path class="cls-3" d="M44.91,44.84H39.28V43a5.64,5.64,0,0,1-5,2.26,5,5,0,0,1-3.85-1.35A4.68,4.68,0,0,1,29,40.18V30.08h5.82v7.74c0,1.71.22,2.9,1.92,2.9,1,0,2.33-.48,2.33-2.85V30h5.84Z"/><path class="cls-3" d="M55.24,34.08a1.43,1.43,0,0,0-.67-1.14,2,2,0,0,0-1.33-.44c-.81,0-1.73.17-1.73,1.18,0,.43.34.63.66.78,1,.41,3.14.53,5.06,1.18s3.6,1.74,3.6,4.23c0,4.21-4,5.37-7.67,5.37s-7.44-1.44-7.53-5.37h5.55a1.83,1.83,0,0,0,.69,1.34,2.37,2.37,0,0,0,1.54.45c.76,0,2-.3,2-1.18s-.49-1.14-3.17-1.6C47.8,38.12,46,36.71,46,34.11c0-3.83,4.11-4.79,7.12-4.79,3.26,0,7.18.9,7.33,4.79Z"/><path class="cls-4" d="M70.77,24.25h-5.6V44.82h5.41V43.18h.06a4.48,4.48,0,0,0,4.28,2c4.17,0,6.17-4.18,6.17-7.93,0-3.51-1.37-7.74-6.24-7.74a4.78,4.78,0,0,0-4.08,2Zm-.21,13.08c0-1.77.46-3.68,2.47-3.68s2.46,1.9,2.46,3.68S75,41,73,41,70.56,39.1,70.56,37.33Z"/><path class="cls-4" d="M97.73,44.83a6.29,6.29,0,0,1-.68-3.41V35.2c0-2.91,0-5.88-7-5.88-3.55,0-7.46.67-7.54,5h5.22c0-.65.38-1.55,2.11-1.55.9,0,1.86.38,1.86,1.35s-.77,1.21-1.54,1.34c-.46.09-1,.16-1.55.24-2.94.4-6.79.92-6.79,5,0,3.27,2.37,4.62,5.22,4.62a5.85,5.85,0,0,0,4.75-1.83A3.93,3.93,0,0,0,92,44.83Zm-8.25-6a9.27,9.27,0,0,0,2.23-.74v1.41A2.32,2.32,0,0,1,91,41.18a2.17,2.17,0,0,1-1.69.66,1.63,1.63,0,0,1-1.77-1.41C87.58,39.41,88.18,39.08,89.48,38.79Z"/><path class="cls-3" d="M99.17,30.4h5.64v1.89a5.7,5.7,0,0,1,5-2.23,5,5,0,0,1,3.78,1.36,4.68,4.68,0,0,1,1.47,3.63V45.2h-5.83V37.44c0-1.7-.22-2.9-1.92-2.9-1,0-2.32.48-2.32,2.85v7.85H99.17Z"/><path class="cls-3" d="M116.54,25h5.7v9.79l3.64-4.26h6.46L127,36.07l6.18,9.17h-6.86l-3.06-5.34-1,1.08v4.26h-5.7Z"/></g></g></g></g></svg>