<svg xmlns="http://www.w3.org/2000/svg" xmlns:xlink="http://www.w3.org/1999/xlink" viewBox="0 0 160 72"><defs><style>.cls-1{fill:#fff;fill-rule:evenodd;}.cls-2{fill:#cf0d27;}.cls-3{mask:url(#mask);}</style><mask id="mask" x="102.6" y="18.92" width="10.9" height="14.04" maskUnits="userSpaceOnUse"><g id="mask0"><path class="cls-1" d="M102.6,18.92h10.9V33H102.6Z"/></g></mask></defs><g id="Layer_2" data-name="Layer 2"><g id="wellsfargo_31"><g id="_31_tile" data-name="31_tile"><rect class="cls-2" width="160" height="72" rx="8"/><path class="cls-1" d="M46.06,21V19.3h6.16V21H50.48l2.18,7.8,2.65-9.47h2.77l2.68,9.58L62.89,21H61.06V19.32H77.13v4.33H75.74c-.35-1.29-.49-2.66-2.31-2.66H70.37v4h3.8a1.93,1.93,0,0,1,0,1.88h-3.8v4.07h3.46c1.46,0,1.76-1.39,2.1-2.87h1.39v4.57H65.92v-1.7h1.63V21H65L61.64,32.61H59L56.3,23l-2.73,9.57H50.89L47.57,21Z"/><path class="cls-1" d="M78.68,21V19.32h6.26V21H83.13v9.92h2.81c1.46,0,1.76-1.39,2.1-2.87h1.39v4.57H78.69v-1.7h1.62V21Z"/><path class="cls-1" d="M90.61,21V19.32h6.26V21H95.06v9.92h2.81c1.45,0,1.76-1.39,2.1-2.87h1.38v4.57H90.61v-1.7h1.63V21Z"/><path class="cls-1" d="M64.45,42.09,66.3,47H62.61Zm11.91-1h2c1.88,0,2.79.63,2.79,2.13s-1.32,2.08-2.51,2.08H76.36ZM63.65,39.37,59,51H57.68v1.67h5.08V51H61.15L62,48.65h4.85L67.76,51H66.23v1.67H78.15V51H76.36V47H77.5c2.08,0,2.68,1,2.83,2.92s.84,2.92,3.08,2.92c.65,0,1.39-.08,1.39-.08a1.78,1.78,0,0,0,0-1.58c-1.49.16-1.53-.91-1.6-2.06a2.7,2.7,0,0,0-2.71-2.85A3.43,3.43,0,0,0,84.05,43c0-2.37-2-3.6-4.42-3.6H71.88v1.72h1.64V51H70.94L66.17,39.37Zm-15.51,0V41h1.61V51H48.13v1.67h6.4V51h-2V47.15h3.91a1.93,1.93,0,0,0,0-1.88H52.58V41h3.29c1.82,0,2,1.37,2.31,2.67h1.39V39.37Z"/><g class="cls-3"><path class="cls-1" d="M102.6,31.74V28H104c.46,2.1,1.39,3.22,3.86,3.22,1.67,0,2.74-.54,2.74-1.91,0-3.4-8-.75-8-6.31,0-2.5,2.12-4.09,5.33-4.09a10.69,10.69,0,0,1,4.84,1.19v3.3h-1.42a2.92,2.92,0,0,0-3.3-2.75c-1.63,0-2.61.72-2.61,1.81,0,3.23,8.06.64,8.06,6.42,0,1.85-1.25,4.08-5.41,4.08A10.87,10.87,0,0,1,102.6,31.74Z"/></g><path class="cls-1" d="M92.58,53.07a6.58,6.58,0,0,1-7-7c0-3.83,2.37-7.13,7-7.13a11.68,11.68,0,0,1,5,1.21v3.39H96.21c-.53-1.51-1.32-2.82-3.5-2.82-2.95,0-4,2.49-4,5.32,0,3,1.23,5.27,4.15,5.27a5.76,5.76,0,0,0,2.2-.47V47.58H92.84a2.2,2.2,0,0,1,0-1.87h5.09V51.6A11.48,11.48,0,0,1,92.58,53.07Z"/><path class="cls-1" d="M106.84,40.75c2.48,0,4,1.84,4,5.26s-1.36,5.29-3.9,5.29-3.92-2-3.92-5.22S104.14,40.75,106.84,40.75Zm0-1.78a6.76,6.76,0,0,0-7.07,7.11,7.06,7.06,0,0,0,14.12,0A6.81,6.81,0,0,0,106.89,39Z"/></g></g></g></svg>